<?xml version="1.0" encoding="UTF-8" standalone="no"?>
<!DOCTYPE svg PUBLIC "-//W3C//DTD SVG 1.1//EN"
 "http://www.w3.org/Graphics/SVG/1.1/DTD/svg11.dtd">
<!-- Generated by graphviz version 2.44.1 (20200629.0846)
 -->
<!-- Title: dependencies Pages: 1 -->
<svg width="2833pt" height="284pt"
 viewBox="0.00 0.00 2833.00 284.00" xmlns="http://www.w3.org/2000/svg" xmlns:xlink="http://www.w3.org/1999/xlink">
<g id="graph0" class="graph" transform="scale(1 1) rotate(0) translate(4 280)">
<title>dependencies</title>
<polygon fill="white" stroke="transparent" points="-4,4 -4,-280 2829,-280 2829,4 -4,4"/>
<text text-anchor="start" x="1391.51" y="-42.4" font-family="sans-serif" font-weight="bold" font-size="14.00">Legend</text>
<polygon fill="#ffffb3" stroke="transparent" points="1178.5,-10 1178.5,-30 1198.5,-30 1198.5,-10 1178.5,-10"/>
<text text-anchor="start" x="1202.13" y="-15.4" font-family="sans-serif" font-size="14.00"> &#160;Declarations</text>
<polygon fill="#8dd3c7" stroke="transparent" points="1291.5,-10 1291.5,-30 1311.5,-30 1311.5,-10 1291.5,-10"/>
<text text-anchor="start" x="1315.23" y="-15.4" font-family="sans-serif" font-size="14.00"> &#160;Module</text>
<polygon fill="#80b1d3" stroke="transparent" points="1377.5,-10 1377.5,-30 1397.5,-30 1397.5,-10 1377.5,-10"/>
<text text-anchor="start" x="1401.28" y="-15.4" font-family="sans-serif" font-size="14.00"> &#160;Bootstrap</text>
<polygon fill="#fdb462" stroke="transparent" points="1474.5,-10 1474.5,-30 1494.5,-30 1494.5,-10 1474.5,-10"/>
<text text-anchor="start" x="1498.17" y="-15.4" font-family="sans-serif" font-size="14.00"> &#160;Providers</text>
<polygon fill="#fb8072" stroke="transparent" points="1570.5,-10 1570.5,-30 1590.5,-30 1590.5,-10 1570.5,-10"/>
<text text-anchor="start" x="1594.23" y="-15.4" font-family="sans-serif" font-size="14.00"> &#160;Exports</text>
<g id="clust1" class="cluster">
<title>cluster_OntoSearchFieldModule</title>
<polygon fill="none" stroke="black" stroke-dasharray="1,5" points="8,-70 8,-268 2817,-268 2817,-70 8,-70"/>
</g>
<g id="clust2" class="cluster">
<title>cluster_OntoSearchFieldModule_declarations</title>
<polygon fill="none" stroke="black" points="2479,-78 2479,-130 2809,-130 2809,-78 2479,-78"/>
</g>
<g id="clust8" class="cluster">
<title>cluster_OntoSearchFieldModule_providers</title>
<polygon fill="none" stroke="black" points="1867,-78 1867,-130 2471,-130 2471,-78 1867,-78"/>
</g>
<g id="clust6" class="cluster">
<title>cluster_OntoSearchFieldModule_exports</title>
<polygon fill="none" stroke="black" points="1028,-208 1028,-260 1224,-260 1224,-208 1028,-208"/>
</g>
<g id="clust5" class="cluster">
<title>cluster_OntoSearchFieldModule_imports</title>
<polygon fill="none" stroke="black" points="16,-78 16,-130 1859,-130 1859,-78 16,-78"/>
</g>
<!-- OntoSearchFieldComponent -->
<g id="node1" class="node">
<title>OntoSearchFieldComponent</title>
<polygon fill="#ffffb3" stroke="black" points="2801.2,-122 2624.8,-122 2624.8,-86 2801.2,-86 2801.2,-122"/>
<text text-anchor="middle" x="2713" y="-99.8" font-family="Times,serif" font-size="14.00">OntoSearchFieldComponent</text>
</g>
<!-- OntoSearchFieldModule -->
<g id="node3" class="node">
<title>OntoSearchFieldModule</title>
<polygon fill="#8dd3c7" stroke="black" points="1203.41,-187 1200.41,-191 1179.41,-191 1176.41,-187 1048.59,-187 1048.59,-151 1203.41,-151 1203.41,-187"/>
<text text-anchor="middle" x="1126" y="-164.8" font-family="Times,serif" font-size="14.00">OntoSearchFieldModule</text>
</g>
<!-- OntoSearchFieldComponent&#45;&gt;OntoSearchFieldModule -->
<g id="edge1" class="edge">
<title>OntoSearchFieldComponent&#45;&gt;OntoSearchFieldModule</title>
<path fill="none" stroke="black" d="M2713,-122.32C2713,-145.66 2713,-183 2713,-183 2713,-183 1213.35,-183 1213.35,-183"/>
<polygon fill="black" stroke="black" points="1213.35,-179.5 1203.35,-183 1213.35,-186.5 1213.35,-179.5"/>
</g>
<!-- SearchComponent -->
<g id="node2" class="node">
<title>SearchComponent</title>
<polygon fill="#ffffb3" stroke="black" points="2606.92,-122 2487.08,-122 2487.08,-86 2606.92,-86 2606.92,-122"/>
<text text-anchor="middle" x="2547" y="-99.8" font-family="Times,serif" font-size="14.00">SearchComponent</text>
</g>
<!-- SearchComponent&#45;&gt;OntoSearchFieldModule -->
<g id="edge2" class="edge">
<title>SearchComponent&#45;&gt;OntoSearchFieldModule</title>
<path fill="none" stroke="black" d="M2547,-122.29C2547,-144.21 2547,-178 2547,-178 2547,-178 1213.41,-178 1213.41,-178"/>
<polygon fill="black" stroke="black" points="1213.41,-174.5 1203.41,-178 1213.41,-181.5 1213.41,-174.5"/>
</g>
<!-- OntoSearchFieldComponent  -->
<g id="node17" class="node">
<title>OntoSearchFieldComponent </title>
<polygon fill="#fb8072" stroke="black" points="1215.7,-252 1036.3,-252 1036.3,-216 1215.7,-216 1215.7,-252"/>
<text text-anchor="middle" x="1126" y="-229.8" font-family="Times,serif" font-size="14.00">OntoSearchFieldComponent </text>
</g>
<!-- OntoSearchFieldModule&#45;&gt;OntoSearchFieldComponent  -->
<g id="edge16" class="edge">
<title>OntoSearchFieldModule&#45;&gt;OntoSearchFieldComponent </title>
<path fill="none" stroke="black" stroke-dasharray="5,2" d="M1126,-187.11C1126,-187.11 1126,-205.99 1126,-205.99"/>
<polygon fill="black" stroke="black" points="1122.5,-205.99 1126,-215.99 1129.5,-205.99 1122.5,-205.99"/>
</g>
<!-- CommonModule -->
<g id="node4" class="node">
<title>CommonModule</title>
<polygon fill="#8dd3c7" stroke="black" points="1850.67,-122 1847.67,-126 1826.67,-126 1823.67,-122 1739.33,-122 1739.33,-86 1850.67,-86 1850.67,-122"/>
<text text-anchor="middle" x="1795" y="-99.8" font-family="Times,serif" font-size="14.00">CommonModule</text>
</g>
<!-- CommonModule&#45;&gt;OntoSearchFieldModule -->
<g id="edge3" class="edge">
<title>CommonModule&#45;&gt;OntoSearchFieldModule</title>
<path fill="none" stroke="black" d="M1795,-122.11C1795,-141.34 1795,-169 1795,-169 1795,-169 1213.4,-169 1213.4,-169"/>
<polygon fill="black" stroke="black" points="1213.4,-165.5 1203.4,-169 1213.4,-172.5 1213.4,-165.5"/>
</g>
<!-- ReactiveFormsModule -->
<g id="node5" class="node">
<title>ReactiveFormsModule</title>
<polygon fill="#8dd3c7" stroke="black" points="1721.3,-122 1718.3,-126 1697.3,-126 1694.3,-122 1576.7,-122 1576.7,-86 1721.3,-86 1721.3,-122"/>
<text text-anchor="middle" x="1649" y="-99.8" font-family="Times,serif" font-size="14.00">ReactiveFormsModule</text>
</g>
<!-- ReactiveFormsModule&#45;&gt;OntoSearchFieldModule -->
<g id="edge4" class="edge">
<title>ReactiveFormsModule&#45;&gt;OntoSearchFieldModule</title>
<path fill="none" stroke="black" d="M1649,-122.3C1649,-140.27 1649,-165 1649,-165 1649,-165 1213.45,-165 1213.45,-165"/>
<polygon fill="black" stroke="black" points="1213.45,-161.5 1203.45,-165 1213.45,-168.5 1213.45,-161.5"/>
</g>
<!-- MatAutocompleteModule -->
<g id="node6" class="node">
<title>MatAutocompleteModule</title>
<polygon fill="#8dd3c7" stroke="black" points="1558.91,-122 1555.91,-126 1534.91,-126 1531.91,-122 1397.09,-122 1397.09,-86 1558.91,-86 1558.91,-122"/>
<text text-anchor="middle" x="1478" y="-99.8" font-family="Times,serif" font-size="14.00">MatAutocompleteModule</text>
</g>
<!-- MatAutocompleteModule&#45;&gt;OntoSearchFieldModule -->
<g id="edge5" class="edge">
<title>MatAutocompleteModule&#45;&gt;OntoSearchFieldModule</title>
<path fill="none" stroke="black" d="M1478,-122.03C1478,-138.4 1478,-160 1478,-160 1478,-160 1213.25,-160 1213.25,-160"/>
<polygon fill="black" stroke="black" points="1213.25,-156.5 1203.25,-160 1213.25,-163.5 1213.25,-156.5"/>
</g>
<!-- MatInputModule -->
<g id="node7" class="node">
<title>MatInputModule</title>
<polygon fill="#8dd3c7" stroke="black" points="1378.65,-122 1375.65,-126 1354.65,-126 1351.65,-122 1267.35,-122 1267.35,-86 1378.65,-86 1378.65,-122"/>
<text text-anchor="middle" x="1323" y="-99.8" font-family="Times,serif" font-size="14.00">MatInputModule</text>
</g>
<!-- MatInputModule&#45;&gt;OntoSearchFieldModule -->
<g id="edge6" class="edge">
<title>MatInputModule&#45;&gt;OntoSearchFieldModule</title>
<path fill="none" stroke="black" d="M1323,-122.19C1323,-137.18 1323,-156 1323,-156 1323,-156 1213.29,-156 1213.29,-156"/>
<polygon fill="black" stroke="black" points="1213.29,-152.5 1203.29,-156 1213.29,-159.5 1213.29,-152.5"/>
</g>
<!-- FormsModule -->
<g id="node8" class="node">
<title>FormsModule</title>
<polygon fill="#8dd3c7" stroke="black" points="1249.83,-122 1246.83,-126 1225.83,-126 1222.83,-122 1154.17,-122 1154.17,-86 1249.83,-86 1249.83,-122"/>
<text text-anchor="middle" x="1202" y="-99.8" font-family="Times,serif" font-size="14.00">FormsModule</text>
</g>
<!-- FormsModule&#45;&gt;OntoSearchFieldModule -->
<g id="edge7" class="edge">
<title>FormsModule&#45;&gt;OntoSearchFieldModule</title>
<path fill="none" stroke="black" d="M1178.77,-122.11C1178.77,-122.11 1178.77,-140.99 1178.77,-140.99"/>
<polygon fill="black" stroke="black" points="1175.27,-140.99 1178.77,-150.99 1182.27,-140.99 1175.27,-140.99"/>
</g>
<!-- BrowserAnimationsModule -->
<g id="node9" class="node">
<title>BrowserAnimationsModule</title>
<polygon fill="#8dd3c7" stroke="black" points="1136.3,-122 1133.3,-126 1112.3,-126 1109.3,-122 963.7,-122 963.7,-86 1136.3,-86 1136.3,-122"/>
<text text-anchor="middle" x="1050" y="-99.8" font-family="Times,serif" font-size="14.00">BrowserAnimationsModule</text>
</g>
<!-- BrowserAnimationsModule&#45;&gt;OntoSearchFieldModule -->
<g id="edge8" class="edge">
<title>BrowserAnimationsModule&#45;&gt;OntoSearchFieldModule</title>
<path fill="none" stroke="black" d="M1092.47,-122.11C1092.47,-122.11 1092.47,-140.99 1092.47,-140.99"/>
<polygon fill="black" stroke="black" points="1088.97,-140.99 1092.47,-150.99 1095.97,-140.99 1088.97,-140.99"/>
</g>
<!-- MatOptionModule -->
<g id="node10" class="node">
<title>MatOptionModule</title>
<polygon fill="#8dd3c7" stroke="black" points="945.49,-122 942.49,-126 921.49,-126 918.49,-122 824.51,-122 824.51,-86 945.49,-86 945.49,-122"/>
<text text-anchor="middle" x="885" y="-99.8" font-family="Times,serif" font-size="14.00">MatOptionModule</text>
</g>
<!-- MatOptionModule&#45;&gt;OntoSearchFieldModule -->
<g id="edge9" class="edge">
<title>MatOptionModule&#45;&gt;OntoSearchFieldModule</title>
<path fill="none" stroke="black" d="M885,-122.19C885,-137.18 885,-156 885,-156 885,-156 1038.75,-156 1038.75,-156"/>
<polygon fill="black" stroke="black" points="1038.75,-159.5 1048.75,-156 1038.75,-152.5 1038.75,-159.5"/>
</g>
<!-- MatSelectModule -->
<g id="node11" class="node">
<title>MatSelectModule</title>
<polygon fill="#8dd3c7" stroke="black" points="806.31,-122 803.31,-126 782.31,-126 779.31,-122 689.69,-122 689.69,-86 806.31,-86 806.31,-122"/>
<text text-anchor="middle" x="748" y="-99.8" font-family="Times,serif" font-size="14.00">MatSelectModule</text>
</g>
<!-- MatSelectModule&#45;&gt;OntoSearchFieldModule -->
<g id="edge10" class="edge">
<title>MatSelectModule&#45;&gt;OntoSearchFieldModule</title>
<path fill="none" stroke="black" d="M748,-122.03C748,-138.4 748,-160 748,-160 748,-160 1038.59,-160 1038.59,-160"/>
<polygon fill="black" stroke="black" points="1038.59,-163.5 1048.59,-160 1038.59,-156.5 1038.59,-163.5"/>
</g>
<!-- MatChipsModule -->
<g id="node12" class="node">
<title>MatChipsModule</title>
<polygon fill="#8dd3c7" stroke="black" points="671.27,-122 668.27,-126 647.27,-126 644.27,-122 556.73,-122 556.73,-86 671.27,-86 671.27,-122"/>
<text text-anchor="middle" x="614" y="-99.8" font-family="Times,serif" font-size="14.00">MatChipsModule</text>
</g>
<!-- MatChipsModule&#45;&gt;OntoSearchFieldModule -->
<g id="edge11" class="edge">
<title>MatChipsModule&#45;&gt;OntoSearchFieldModule</title>
<path fill="none" stroke="black" d="M614,-122.3C614,-140.27 614,-165 614,-165 614,-165 1038.52,-165 1038.52,-165"/>
<polygon fill="black" stroke="black" points="1038.52,-168.5 1048.52,-165 1038.52,-161.5 1038.52,-168.5"/>
</g>
<!-- MatIconModule -->
<g id="node13" class="node">
<title>MatIconModule</title>
<polygon fill="#8dd3c7" stroke="black" points="538.47,-122 535.47,-126 514.47,-126 511.47,-122 431.53,-122 431.53,-86 538.47,-86 538.47,-122"/>
<text text-anchor="middle" x="485" y="-99.8" font-family="Times,serif" font-size="14.00">MatIconModule</text>
</g>
<!-- MatIconModule&#45;&gt;OntoSearchFieldModule -->
<g id="edge12" class="edge">
<title>MatIconModule&#45;&gt;OntoSearchFieldModule</title>
<path fill="none" stroke="black" d="M485,-122.11C485,-141.34 485,-169 485,-169 485,-169 1038.68,-169 1038.68,-169"/>
<polygon fill="black" stroke="black" points="1038.68,-172.5 1048.68,-169 1038.68,-165.5 1038.68,-172.5"/>
</g>
<!-- MatButtonModule -->
<g id="node14" class="node">
<title>MatButtonModule</title>
<polygon fill="#8dd3c7" stroke="black" points="413.22,-122 410.22,-126 389.22,-126 386.22,-122 292.78,-122 292.78,-86 413.22,-86 413.22,-122"/>
<text text-anchor="middle" x="353" y="-99.8" font-family="Times,serif" font-size="14.00">MatButtonModule</text>
</g>
<!-- MatButtonModule&#45;&gt;OntoSearchFieldModule -->
<g id="edge13" class="edge">
<title>MatButtonModule&#45;&gt;OntoSearchFieldModule</title>
<path fill="none" stroke="black" d="M353,-122.03C353,-142.77 353,-174 353,-174 353,-174 1038.7,-174 1038.7,-174"/>
<polygon fill="black" stroke="black" points="1038.7,-177.5 1048.7,-174 1038.7,-170.5 1038.7,-177.5"/>
</g>
<!-- TranslocoModule -->
<g id="node15" class="node">
<title>TranslocoModule</title>
<polygon fill="#8dd3c7" stroke="black" points="274.53,-122 271.53,-126 250.53,-126 247.53,-122 159.47,-122 159.47,-86 274.53,-86 274.53,-122"/>
<text text-anchor="middle" x="217" y="-99.8" font-family="Times,serif" font-size="14.00">TranslocoModule</text>
</g>
<!-- TranslocoModule&#45;&gt;OntoSearchFieldModule -->
<g id="edge14" class="edge">
<title>TranslocoModule&#45;&gt;OntoSearchFieldModule</title>
<path fill="none" stroke="black" d="M217,-122.29C217,-144.21 217,-178 217,-178 217,-178 1038.5,-178 1038.5,-178"/>
<polygon fill="black" stroke="black" points="1038.5,-181.5 1048.5,-178 1038.5,-174.5 1038.5,-181.5"/>
</g>
<!-- DirectivesModule -->
<g id="node16" class="node">
<title>DirectivesModule</title>
<polygon fill="#8dd3c7" stroke="black" points="141.58,-122 138.58,-126 117.58,-126 114.58,-122 24.42,-122 24.42,-86 141.58,-86 141.58,-122"/>
<text text-anchor="middle" x="83" y="-99.8" font-family="Times,serif" font-size="14.00">DirectivesModule</text>
</g>
<!-- DirectivesModule&#45;&gt;OntoSearchFieldModule -->
<g id="edge15" class="edge">
<title>DirectivesModule&#45;&gt;OntoSearchFieldModule</title>
<path fill="none" stroke="black" d="M83,-122.32C83,-145.66 83,-183 83,-183 83,-183 1038.46,-183 1038.46,-183"/>
<polygon fill="black" stroke="black" points="1038.46,-186.5 1048.46,-183 1038.46,-179.5 1038.46,-186.5"/>
</g>
<!-- { provide: TRANSLOCO_CONFIG, useValue: translocoConfiguration } -->
<g id="node18" class="node">
<title>{ provide: TRANSLOCO_CONFIG, useValue: translocoConfiguration }</title>
<ellipse fill="#fdb462" stroke="black" cx="2169" cy="-104" rx="293.72" ry="18"/>
<text text-anchor="middle" x="2169" y="-99.8" font-family="Times,serif" font-size="14.00">{ provide: TRANSLOCO_CONFIG, useValue: translocoConfiguration }</text>
</g>
<!-- { provide: TRANSLOCO_CONFIG, useValue: translocoConfiguration }&#45;&gt;OntoSearchFieldModule -->
<g id="edge17" class="edge">
<title>{ provide: TRANSLOCO_CONFIG, useValue: translocoConfiguration }&#45;&gt;OntoSearchFieldModule</title>
<path fill="none" stroke="black" d="M2169,-122.03C2169,-142.77 2169,-174 2169,-174 2169,-174 1213.54,-174 1213.54,-174"/>
<polygon fill="black" stroke="black" points="1213.54,-170.5 1203.54,-174 1213.54,-177.5 1213.54,-170.5"/>
</g>
</g>
</svg>
