<?xml version="1.0" encoding="UTF-8" standalone="no"?>
<!DOCTYPE svg PUBLIC "-//W3C//DTD SVG 1.1//EN"
 "http://www.w3.org/Graphics/SVG/1.1/DTD/svg11.dtd">
<!-- Generated by graphviz version 2.44.1 (20200629.0846)
 -->
<!-- Title: dependencies Pages: 1 -->
<svg width="3896pt" height="284pt"
 viewBox="0.00 0.00 3896.00 284.00" xmlns="http://www.w3.org/2000/svg" xmlns:xlink="http://www.w3.org/1999/xlink">
<g id="graph0" class="graph" transform="scale(1 1) rotate(0) translate(4 280)">
<title>dependencies</title>
<polygon fill="white" stroke="transparent" points="-4,4 -4,-280 3892,-280 3892,4 -4,4"/>
<text text-anchor="start" x="1923.01" y="-42.4" font-family="sans-serif" font-weight="bold" font-size="14.00">Legend</text>
<polygon fill="#ffffb3" stroke="transparent" points="1710,-10 1710,-30 1730,-30 1730,-10 1710,-10"/>
<text text-anchor="start" x="1733.63" y="-15.4" font-family="sans-serif" font-size="14.00"> &#160;Declarations</text>
<polygon fill="#8dd3c7" stroke="transparent" points="1823,-10 1823,-30 1843,-30 1843,-10 1823,-10"/>
<text text-anchor="start" x="1846.73" y="-15.4" font-family="sans-serif" font-size="14.00"> &#160;Module</text>
<polygon fill="#80b1d3" stroke="transparent" points="1909,-10 1909,-30 1929,-30 1929,-10 1909,-10"/>
<text text-anchor="start" x="1932.78" y="-15.4" font-family="sans-serif" font-size="14.00"> &#160;Bootstrap</text>
<polygon fill="#fdb462" stroke="transparent" points="2006,-10 2006,-30 2026,-30 2026,-10 2006,-10"/>
<text text-anchor="start" x="2029.67" y="-15.4" font-family="sans-serif" font-size="14.00"> &#160;Providers</text>
<polygon fill="#fb8072" stroke="transparent" points="2102,-10 2102,-30 2122,-30 2122,-10 2102,-10"/>
<text text-anchor="start" x="2125.73" y="-15.4" font-family="sans-serif" font-size="14.00"> &#160;Exports</text>
<g id="clust1" class="cluster">
<title>cluster_OntoSearchFacetModule</title>
<polygon fill="none" stroke="black" stroke-dasharray="1,5" points="8,-70 8,-268 3880,-268 3880,-70 8,-70"/>
</g>
<g id="clust2" class="cluster">
<title>cluster_OntoSearchFacetModule_declarations</title>
<polygon fill="none" stroke="black" points="3130,-78 3130,-130 3872,-130 3872,-78 3130,-78"/>
</g>
<g id="clust7" class="cluster">
<title>cluster_OntoSearchFacetModule_imports</title>
<polygon fill="none" stroke="black" points="1357,-78 1357,-130 3122,-130 3122,-78 1357,-78"/>
</g>
<g id="clust10" class="cluster">
<title>cluster_OntoSearchFacetModule_providers</title>
<polygon fill="none" stroke="black" points="16,-78 16,-130 1349,-130 1349,-78 16,-78"/>
</g>
<g id="clust8" class="cluster">
<title>cluster_OntoSearchFacetModule_exports</title>
<polygon fill="none" stroke="black" points="2338,-208 2338,-260 2536,-260 2536,-208 2338,-208"/>
</g>
<!-- OntoSearchFacetComponent -->
<g id="node1" class="node">
<title>OntoSearchFacetComponent</title>
<polygon fill="#ffffb3" stroke="black" points="3863.73,-122 3686.27,-122 3686.27,-86 3863.73,-86 3863.73,-122"/>
<text text-anchor="middle" x="3775" y="-99.8" font-family="Times,serif" font-size="14.00">OntoSearchFacetComponent</text>
</g>
<!-- OntoSearchFacetModule -->
<g id="node5" class="node">
<title>OntoSearchFacetModule</title>
<polygon fill="#8dd3c7" stroke="black" points="2514.95,-187 2511.95,-191 2490.95,-191 2487.95,-187 2359.05,-187 2359.05,-151 2514.95,-151 2514.95,-187"/>
<text text-anchor="middle" x="2437" y="-164.8" font-family="Times,serif" font-size="14.00">OntoSearchFacetModule</text>
</g>
<!-- OntoSearchFacetComponent&#45;&gt;OntoSearchFacetModule -->
<g id="edge1" class="edge">
<title>OntoSearchFacetComponent&#45;&gt;OntoSearchFacetModule</title>
<path fill="none" stroke="black" d="M3775,-122.32C3775,-145.66 3775,-183 3775,-183 3775,-183 2525.21,-183 2525.21,-183"/>
<polygon fill="black" stroke="black" points="2525.21,-179.5 2515.21,-183 2525.21,-186.5 2525.21,-179.5"/>
</g>
<!-- CheckboxFacetComponent -->
<g id="node2" class="node">
<title>CheckboxFacetComponent</title>
<polygon fill="#ffffb3" stroke="black" points="3668.42,-122 3499.58,-122 3499.58,-86 3668.42,-86 3668.42,-122"/>
<text text-anchor="middle" x="3584" y="-99.8" font-family="Times,serif" font-size="14.00">CheckboxFacetComponent</text>
</g>
<!-- CheckboxFacetComponent&#45;&gt;OntoSearchFacetModule -->
<g id="edge2" class="edge">
<title>CheckboxFacetComponent&#45;&gt;OntoSearchFacetModule</title>
<path fill="none" stroke="black" d="M3584,-122.16C3584,-144.35 3584,-179 3584,-179 3584,-179 2525.39,-179 2525.39,-179"/>
<polygon fill="black" stroke="black" points="2525.39,-175.5 2515.39,-179 2525.39,-182.5 2525.39,-175.5"/>
</g>
<!-- DateRangeFacetComponent -->
<g id="node3" class="node">
<title>DateRangeFacetComponent</title>
<polygon fill="#ffffb3" stroke="black" points="3481.84,-122 3308.16,-122 3308.16,-86 3481.84,-86 3481.84,-122"/>
<text text-anchor="middle" x="3395" y="-99.8" font-family="Times,serif" font-size="14.00">DateRangeFacetComponent</text>
</g>
<!-- DateRangeFacetComponent&#45;&gt;OntoSearchFacetModule -->
<g id="edge3" class="edge">
<title>DateRangeFacetComponent&#45;&gt;OntoSearchFacetModule</title>
<path fill="none" stroke="black" d="M3395,-122.28C3395,-143.32 3395,-175 3395,-175 3395,-175 2524.99,-175 2524.99,-175"/>
<polygon fill="black" stroke="black" points="2524.99,-171.5 2514.99,-175 2524.99,-178.5 2524.99,-171.5"/>
</g>
<!-- ToggleFacetComponent -->
<g id="node4" class="node">
<title>ToggleFacetComponent</title>
<polygon fill="#ffffb3" stroke="black" points="3289.81,-122 3138.19,-122 3138.19,-86 3289.81,-86 3289.81,-122"/>
<text text-anchor="middle" x="3214" y="-99.8" font-family="Times,serif" font-size="14.00">ToggleFacetComponent</text>
</g>
<!-- ToggleFacetComponent&#45;&gt;OntoSearchFacetModule -->
<g id="edge4" class="edge">
<title>ToggleFacetComponent&#45;&gt;OntoSearchFacetModule</title>
<path fill="none" stroke="black" d="M3214,-122.31C3214,-142.15 3214,-171 3214,-171 3214,-171 2525.06,-171 2525.06,-171"/>
<polygon fill="black" stroke="black" points="2525.06,-167.5 2515.06,-171 2525.06,-174.5 2525.06,-167.5"/>
</g>
<!-- OntoSearchFacetComponent  -->
<g id="node18" class="node">
<title>OntoSearchFacetComponent </title>
<polygon fill="#fb8072" stroke="black" points="2527.73,-252 2346.27,-252 2346.27,-216 2527.73,-216 2527.73,-252"/>
<text text-anchor="middle" x="2437" y="-229.8" font-family="Times,serif" font-size="14.00">OntoSearchFacetComponent </text>
</g>
<!-- OntoSearchFacetModule&#45;&gt;OntoSearchFacetComponent  -->
<g id="edge17" class="edge">
<title>OntoSearchFacetModule&#45;&gt;OntoSearchFacetComponent </title>
<path fill="none" stroke="black" stroke-dasharray="5,2" d="M2437,-187.11C2437,-187.11 2437,-205.99 2437,-205.99"/>
<polygon fill="black" stroke="black" points="2433.5,-205.99 2437,-215.99 2440.5,-205.99 2433.5,-205.99"/>
</g>
<!-- CommonModule -->
<g id="node6" class="node">
<title>CommonModule</title>
<polygon fill="#8dd3c7" stroke="black" points="3113.67,-122 3110.67,-126 3089.67,-126 3086.67,-122 3002.33,-122 3002.33,-86 3113.67,-86 3113.67,-122"/>
<text text-anchor="middle" x="3058" y="-99.8" font-family="Times,serif" font-size="14.00">CommonModule</text>
</g>
<!-- CommonModule&#45;&gt;OntoSearchFacetModule -->
<g id="edge5" class="edge">
<title>CommonModule&#45;&gt;OntoSearchFacetModule</title>
<path fill="none" stroke="black" d="M3058,-122.22C3058,-140.83 3058,-167 3058,-167 3058,-167 2525.02,-167 2525.02,-167"/>
<polygon fill="black" stroke="black" points="2525.02,-163.5 2515.02,-167 2525.02,-170.5 2525.02,-163.5"/>
</g>
<!-- MatCheckboxModule -->
<g id="node7" class="node">
<title>MatCheckboxModule</title>
<polygon fill="#8dd3c7" stroke="black" points="2984.37,-122 2981.37,-126 2960.37,-126 2957.37,-122 2845.63,-122 2845.63,-86 2984.37,-86 2984.37,-122"/>
<text text-anchor="middle" x="2915" y="-99.8" font-family="Times,serif" font-size="14.00">MatCheckboxModule</text>
</g>
<!-- MatCheckboxModule&#45;&gt;OntoSearchFacetModule -->
<g id="edge6" class="edge">
<title>MatCheckboxModule&#45;&gt;OntoSearchFacetModule</title>
<path fill="none" stroke="black" d="M2915,-122.02C2915,-139.37 2915,-163 2915,-163 2915,-163 2525.13,-163 2525.13,-163"/>
<polygon fill="black" stroke="black" points="2525.13,-159.5 2515.13,-163 2525.13,-166.5 2525.13,-159.5"/>
</g>
<!-- FormsModule -->
<g id="node8" class="node">
<title>FormsModule</title>
<polygon fill="#8dd3c7" stroke="black" points="2827.83,-122 2824.83,-126 2803.83,-126 2800.83,-122 2732.17,-122 2732.17,-86 2827.83,-86 2827.83,-122"/>
<text text-anchor="middle" x="2780" y="-99.8" font-family="Times,serif" font-size="14.00">FormsModule</text>
</g>
<!-- FormsModule&#45;&gt;OntoSearchFacetModule -->
<g id="edge7" class="edge">
<title>FormsModule&#45;&gt;OntoSearchFacetModule</title>
<path fill="none" stroke="black" d="M2780,-122.01C2780,-138.05 2780,-159 2780,-159 2780,-159 2525.26,-159 2525.26,-159"/>
<polygon fill="black" stroke="black" points="2525.26,-155.5 2515.26,-159 2525.26,-162.5 2525.26,-155.5"/>
</g>
<!-- DirectivesModule -->
<g id="node9" class="node">
<title>DirectivesModule</title>
<polygon fill="#8dd3c7" stroke="black" points="2714.58,-122 2711.58,-126 2690.58,-126 2687.58,-122 2597.42,-122 2597.42,-86 2714.58,-86 2714.58,-122"/>
<text text-anchor="middle" x="2656" y="-99.8" font-family="Times,serif" font-size="14.00">DirectivesModule</text>
</g>
<!-- DirectivesModule&#45;&gt;OntoSearchFacetModule -->
<g id="edge8" class="edge">
<title>DirectivesModule&#45;&gt;OntoSearchFacetModule</title>
<path fill="none" stroke="black" d="M2656,-122.12C2656,-136.78 2656,-155 2656,-155 2656,-155 2525.14,-155 2525.14,-155"/>
<polygon fill="black" stroke="black" points="2525.14,-151.5 2515.14,-155 2525.14,-158.5 2525.14,-151.5"/>
</g>
<!-- MatFormFieldModule -->
<g id="node10" class="node">
<title>MatFormFieldModule</title>
<polygon fill="#8dd3c7" stroke="black" points="2579.71,-122 2576.71,-126 2555.71,-126 2552.71,-122 2438.29,-122 2438.29,-86 2579.71,-86 2579.71,-122"/>
<text text-anchor="middle" x="2509" y="-99.8" font-family="Times,serif" font-size="14.00">MatFormFieldModule</text>
</g>
<!-- MatFormFieldModule&#45;&gt;OntoSearchFacetModule -->
<g id="edge9" class="edge">
<title>MatFormFieldModule&#45;&gt;OntoSearchFacetModule</title>
<path fill="none" stroke="black" d="M2476.68,-122.11C2476.68,-122.11 2476.68,-140.99 2476.68,-140.99"/>
<polygon fill="black" stroke="black" points="2473.18,-140.99 2476.68,-150.99 2480.18,-140.99 2473.18,-140.99"/>
</g>
<!-- MatInputModule -->
<g id="node11" class="node">
<title>MatInputModule</title>
<polygon fill="#8dd3c7" stroke="black" points="2420.65,-122 2417.65,-126 2396.65,-126 2393.65,-122 2309.35,-122 2309.35,-86 2420.65,-86 2420.65,-122"/>
<text text-anchor="middle" x="2365" y="-99.8" font-family="Times,serif" font-size="14.00">MatInputModule</text>
</g>
<!-- MatInputModule&#45;&gt;OntoSearchFacetModule -->
<g id="edge10" class="edge">
<title>MatInputModule&#45;&gt;OntoSearchFacetModule</title>
<path fill="none" stroke="black" d="M2389.92,-122.11C2389.92,-122.11 2389.92,-140.99 2389.92,-140.99"/>
<polygon fill="black" stroke="black" points="2386.43,-140.99 2389.92,-150.99 2393.43,-140.99 2386.43,-140.99"/>
</g>
<!-- MatDatepickerModule -->
<g id="node12" class="node">
<title>MatDatepickerModule</title>
<polygon fill="#8dd3c7" stroke="black" points="2290.51,-122 2287.51,-126 2266.51,-126 2263.51,-122 2147.49,-122 2147.49,-86 2290.51,-86 2290.51,-122"/>
<text text-anchor="middle" x="2219" y="-99.8" font-family="Times,serif" font-size="14.00">MatDatepickerModule</text>
</g>
<!-- MatDatepickerModule&#45;&gt;OntoSearchFacetModule -->
<g id="edge11" class="edge">
<title>MatDatepickerModule&#45;&gt;OntoSearchFacetModule</title>
<path fill="none" stroke="black" d="M2219,-122.12C2219,-136.78 2219,-155 2219,-155 2219,-155 2348.91,-155 2348.91,-155"/>
<polygon fill="black" stroke="black" points="2348.91,-158.5 2358.91,-155 2348.91,-151.5 2348.91,-158.5"/>
</g>
<!-- MatMomentDateModule -->
<g id="node13" class="node">
<title>MatMomentDateModule</title>
<polygon fill="#8dd3c7" stroke="black" points="2128.97,-122 2125.97,-126 2104.97,-126 2101.97,-122 1973.03,-122 1973.03,-86 2128.97,-86 2128.97,-122"/>
<text text-anchor="middle" x="2051" y="-99.8" font-family="Times,serif" font-size="14.00">MatMomentDateModule</text>
</g>
<!-- MatMomentDateModule&#45;&gt;OntoSearchFacetModule -->
<g id="edge12" class="edge">
<title>MatMomentDateModule&#45;&gt;OntoSearchFacetModule</title>
<path fill="none" stroke="black" d="M2051,-122.01C2051,-138.05 2051,-159 2051,-159 2051,-159 2348.89,-159 2348.89,-159"/>
<polygon fill="black" stroke="black" points="2348.89,-162.5 2358.89,-159 2348.89,-155.5 2348.89,-162.5"/>
</g>
<!-- ReactiveFormsModule -->
<g id="node14" class="node">
<title>ReactiveFormsModule</title>
<polygon fill="#8dd3c7" stroke="black" points="1955.3,-122 1952.3,-126 1931.3,-126 1928.3,-122 1810.7,-122 1810.7,-86 1955.3,-86 1955.3,-122"/>
<text text-anchor="middle" x="1883" y="-99.8" font-family="Times,serif" font-size="14.00">ReactiveFormsModule</text>
</g>
<!-- ReactiveFormsModule&#45;&gt;OntoSearchFacetModule -->
<g id="edge13" class="edge">
<title>ReactiveFormsModule&#45;&gt;OntoSearchFacetModule</title>
<path fill="none" stroke="black" d="M1883,-122.02C1883,-139.37 1883,-163 1883,-163 1883,-163 2348.8,-163 2348.8,-163"/>
<polygon fill="black" stroke="black" points="2348.8,-166.5 2358.8,-163 2348.8,-159.5 2348.8,-166.5"/>
</g>
<!-- MatSlideToggleModule -->
<g id="node15" class="node">
<title>MatSlideToggleModule</title>
<polygon fill="#8dd3c7" stroke="black" points="1793.04,-122 1790.04,-126 1769.04,-126 1766.04,-122 1642.96,-122 1642.96,-86 1793.04,-86 1793.04,-122"/>
<text text-anchor="middle" x="1718" y="-99.8" font-family="Times,serif" font-size="14.00">MatSlideToggleModule</text>
</g>
<!-- MatSlideToggleModule&#45;&gt;OntoSearchFacetModule -->
<g id="edge14" class="edge">
<title>MatSlideToggleModule&#45;&gt;OntoSearchFacetModule</title>
<path fill="none" stroke="black" d="M1718,-122.22C1718,-140.83 1718,-167 1718,-167 1718,-167 2349.03,-167 2349.03,-167"/>
<polygon fill="black" stroke="black" points="2349.03,-170.5 2359.03,-167 2349.03,-163.5 2349.03,-170.5"/>
</g>
<!-- RangeFacetModule -->
<g id="node16" class="node">
<title>RangeFacetModule</title>
<polygon fill="#8dd3c7" stroke="black" points="1624.63,-122 1621.63,-126 1600.63,-126 1597.63,-122 1499.37,-122 1499.37,-86 1624.63,-86 1624.63,-122"/>
<text text-anchor="middle" x="1562" y="-99.8" font-family="Times,serif" font-size="14.00">RangeFacetModule</text>
</g>
<!-- RangeFacetModule&#45;&gt;OntoSearchFacetModule -->
<g id="edge15" class="edge">
<title>RangeFacetModule&#45;&gt;OntoSearchFacetModule</title>
<path fill="none" stroke="black" d="M1562,-122.31C1562,-142.15 1562,-171 1562,-171 1562,-171 2348.96,-171 2348.96,-171"/>
<polygon fill="black" stroke="black" points="2348.96,-174.5 2358.96,-171 2348.96,-167.5 2348.96,-174.5"/>
</g>
<!-- TranslocoModule -->
<g id="node17" class="node">
<title>TranslocoModule</title>
<polygon fill="#8dd3c7" stroke="black" points="1480.53,-122 1477.53,-126 1456.53,-126 1453.53,-122 1365.47,-122 1365.47,-86 1480.53,-86 1480.53,-122"/>
<text text-anchor="middle" x="1423" y="-99.8" font-family="Times,serif" font-size="14.00">TranslocoModule</text>
</g>
<!-- TranslocoModule&#45;&gt;OntoSearchFacetModule -->
<g id="edge16" class="edge">
<title>TranslocoModule&#45;&gt;OntoSearchFacetModule</title>
<path fill="none" stroke="black" d="M1423,-122.28C1423,-143.32 1423,-175 1423,-175 1423,-175 2348.7,-175 2348.7,-175"/>
<polygon fill="black" stroke="black" points="2348.7,-178.5 2358.7,-175 2348.7,-171.5 2348.7,-178.5"/>
</g>
<!-- { provide: MAT_DATE_FORMATS, useValue: CUSTOM_MAT_DATE_FORMATS } -->
<g id="node19" class="node">
<title>{ provide: MAT_DATE_FORMATS, useValue: CUSTOM_MAT_DATE_FORMATS }</title>
<ellipse fill="#fdb462" stroke="black" cx="985" cy="-104" rx="355.62" ry="18"/>
<text text-anchor="middle" x="985" y="-99.8" font-family="Times,serif" font-size="14.00">{ provide: MAT_DATE_FORMATS, useValue: CUSTOM_MAT_DATE_FORMATS }</text>
</g>
<!-- { provide: MAT_DATE_FORMATS, useValue: CUSTOM_MAT_DATE_FORMATS }&#45;&gt;OntoSearchFacetModule -->
<g id="edge18" class="edge">
<title>{ provide: MAT_DATE_FORMATS, useValue: CUSTOM_MAT_DATE_FORMATS }&#45;&gt;OntoSearchFacetModule</title>
<path fill="none" stroke="black" d="M985,-122.16C985,-144.35 985,-179 985,-179 985,-179 2348.93,-179 2348.93,-179"/>
<polygon fill="black" stroke="black" points="2348.93,-182.5 2358.93,-179 2348.93,-175.5 2348.93,-182.5"/>
</g>
<!-- { provide: TRANSLOCO_CONFIG, useValue: translocoConfiguration } -->
<g id="node20" class="node">
<title>{ provide: TRANSLOCO_CONFIG, useValue: translocoConfiguration }</title>
<ellipse fill="#fdb462" stroke="black" cx="318" cy="-104" rx="293.72" ry="18"/>
<text text-anchor="middle" x="318" y="-99.8" font-family="Times,serif" font-size="14.00">{ provide: TRANSLOCO_CONFIG, useValue: translocoConfiguration }</text>
</g>
<!-- { provide: TRANSLOCO_CONFIG, useValue: translocoConfiguration }&#45;&gt;OntoSearchFacetModule -->
<g id="edge19" class="edge">
<title>{ provide: TRANSLOCO_CONFIG, useValue: translocoConfiguration }&#45;&gt;OntoSearchFacetModule</title>
<path fill="none" stroke="black" d="M318,-122.32C318,-145.66 318,-183 318,-183 318,-183 2348.75,-183 2348.75,-183"/>
<polygon fill="black" stroke="black" points="2348.75,-186.5 2358.75,-183 2348.75,-179.5 2348.75,-186.5"/>
</g>
</g>
</svg>
