<?xml version="1.0" encoding="UTF-8" standalone="no"?>
<!DOCTYPE svg PUBLIC "-//W3C//DTD SVG 1.1//EN"
 "http://www.w3.org/Graphics/SVG/1.1/DTD/svg11.dtd">
<!-- Generated by graphviz version 2.44.1 (20200629.0846)
 -->
<!-- Title: dependencies Pages: 1 -->
<svg width="682pt" height="284pt"
 viewBox="0.00 0.00 682.00 284.00" xmlns="http://www.w3.org/2000/svg" xmlns:xlink="http://www.w3.org/1999/xlink">
<g id="graph0" class="graph" transform="scale(1 1) rotate(0) translate(4 280)">
<title>dependencies</title>
<polygon fill="white" stroke="transparent" points="-4,4 -4,-280 678,-280 678,4 -4,4"/>
<text text-anchor="start" x="316.01" y="-42.4" font-family="sans-serif" font-weight="bold" font-size="14.00">Legend</text>
<polygon fill="#ffffb3" stroke="transparent" points="103,-10 103,-30 123,-30 123,-10 103,-10"/>
<text text-anchor="start" x="126.63" y="-15.4" font-family="sans-serif" font-size="14.00"> &#160;Declarations</text>
<polygon fill="#8dd3c7" stroke="transparent" points="216,-10 216,-30 236,-30 236,-10 216,-10"/>
<text text-anchor="start" x="239.73" y="-15.4" font-family="sans-serif" font-size="14.00"> &#160;Module</text>
<polygon fill="#80b1d3" stroke="transparent" points="302,-10 302,-30 322,-30 322,-10 302,-10"/>
<text text-anchor="start" x="325.78" y="-15.4" font-family="sans-serif" font-size="14.00"> &#160;Bootstrap</text>
<polygon fill="#fdb462" stroke="transparent" points="399,-10 399,-30 419,-30 419,-10 399,-10"/>
<text text-anchor="start" x="422.67" y="-15.4" font-family="sans-serif" font-size="14.00"> &#160;Providers</text>
<polygon fill="#fb8072" stroke="transparent" points="495,-10 495,-30 515,-30 515,-10 495,-10"/>
<text text-anchor="start" x="518.73" y="-15.4" font-family="sans-serif" font-size="14.00"> &#160;Exports</text>
<g id="clust1" class="cluster">
<title>cluster_OntoSearchPaginatorModule</title>
<polygon fill="none" stroke="black" stroke-dasharray="1,5" points="8,-70 8,-268 666,-268 666,-70 8,-70"/>
</g>
<g id="clust5" class="cluster">
<title>cluster_OntoSearchPaginatorModule_exports</title>
<polygon fill="none" stroke="black" points="280,-208 280,-260 500,-260 500,-208 280,-208"/>
</g>
<g id="clust4" class="cluster">
<title>cluster_OntoSearchPaginatorModule_imports</title>
<polygon fill="none" stroke="black" points="242,-78 242,-130 658,-130 658,-78 242,-78"/>
</g>
<g id="clust2" class="cluster">
<title>cluster_OntoSearchPaginatorModule_declarations</title>
<polygon fill="none" stroke="black" points="16,-78 16,-130 234,-130 234,-78 16,-78"/>
</g>
<!-- OntoSearchPaginatorComponent -->
<g id="node1" class="node">
<title>OntoSearchPaginatorComponent</title>
<polygon fill="#ffffb3" stroke="black" points="225.57,-122 24.43,-122 24.43,-86 225.57,-86 225.57,-122"/>
<text text-anchor="middle" x="125" y="-99.8" font-family="Times,serif" font-size="14.00">OntoSearchPaginatorComponent</text>
</g>
<!-- OntoSearchPaginatorModule -->
<g id="node2" class="node">
<title>OntoSearchPaginatorModule</title>
<polygon fill="#8dd3c7" stroke="black" points="479.79,-187 476.79,-191 455.79,-191 452.79,-187 300.21,-187 300.21,-151 479.79,-151 479.79,-187"/>
<text text-anchor="middle" x="390" y="-164.8" font-family="Times,serif" font-size="14.00">OntoSearchPaginatorModule</text>
</g>
<!-- OntoSearchPaginatorComponent&#45;&gt;OntoSearchPaginatorModule -->
<g id="edge1" class="edge">
<title>OntoSearchPaginatorComponent&#45;&gt;OntoSearchPaginatorModule</title>
<path fill="none" stroke="black" d="M125,-122.11C125,-141.34 125,-169 125,-169 125,-169 290.28,-169 290.28,-169"/>
<polygon fill="black" stroke="black" points="290.28,-172.5 300.28,-169 290.28,-165.5 290.28,-172.5"/>
</g>
<!-- OntoSearchPaginatorComponent  -->
<g id="node6" class="node">
<title>OntoSearchPaginatorComponent </title>
<polygon fill="#fb8072" stroke="black" points="492.07,-252 287.93,-252 287.93,-216 492.07,-216 492.07,-252"/>
<text text-anchor="middle" x="390" y="-229.8" font-family="Times,serif" font-size="14.00">OntoSearchPaginatorComponent </text>
</g>
<!-- OntoSearchPaginatorModule&#45;&gt;OntoSearchPaginatorComponent  -->
<g id="edge5" class="edge">
<title>OntoSearchPaginatorModule&#45;&gt;OntoSearchPaginatorComponent </title>
<path fill="none" stroke="black" stroke-dasharray="5,2" d="M390,-187.11C390,-187.11 390,-205.99 390,-205.99"/>
<polygon fill="black" stroke="black" points="386.5,-205.99 390,-215.99 393.5,-205.99 386.5,-205.99"/>
</g>
<!-- CommonModule -->
<g id="node3" class="node">
<title>CommonModule</title>
<polygon fill="#8dd3c7" stroke="black" points="649.67,-122 646.67,-126 625.67,-126 622.67,-122 538.33,-122 538.33,-86 649.67,-86 649.67,-122"/>
<text text-anchor="middle" x="594" y="-99.8" font-family="Times,serif" font-size="14.00">CommonModule</text>
</g>
<!-- CommonModule&#45;&gt;OntoSearchPaginatorModule -->
<g id="edge2" class="edge">
<title>CommonModule&#45;&gt;OntoSearchPaginatorModule</title>
<path fill="none" stroke="black" d="M594,-122.11C594,-141.34 594,-169 594,-169 594,-169 489.77,-169 489.77,-169"/>
<polygon fill="black" stroke="black" points="489.77,-165.5 479.77,-169 489.77,-172.5 489.77,-165.5"/>
</g>
<!-- DirectivesModule -->
<g id="node4" class="node">
<title>DirectivesModule</title>
<polygon fill="#8dd3c7" stroke="black" points="520.58,-122 517.58,-126 496.58,-126 493.58,-122 403.42,-122 403.42,-86 520.58,-86 520.58,-122"/>
<text text-anchor="middle" x="462" y="-99.8" font-family="Times,serif" font-size="14.00">DirectivesModule</text>
</g>
<!-- DirectivesModule&#45;&gt;OntoSearchPaginatorModule -->
<g id="edge3" class="edge">
<title>DirectivesModule&#45;&gt;OntoSearchPaginatorModule</title>
<path fill="none" stroke="black" d="M441.55,-122.11C441.55,-122.11 441.55,-140.99 441.55,-140.99"/>
<polygon fill="black" stroke="black" points="438.05,-140.99 441.55,-150.99 445.05,-140.99 438.05,-140.99"/>
</g>
<!-- MatPaginatorModule -->
<g id="node5" class="node">
<title>MatPaginatorModule</title>
<polygon fill="#8dd3c7" stroke="black" points="385.75,-122 382.75,-126 361.75,-126 358.75,-122 250.25,-122 250.25,-86 385.75,-86 385.75,-122"/>
<text text-anchor="middle" x="318" y="-99.8" font-family="Times,serif" font-size="14.00">MatPaginatorModule</text>
</g>
<!-- MatPaginatorModule&#45;&gt;OntoSearchPaginatorModule -->
<g id="edge4" class="edge">
<title>MatPaginatorModule&#45;&gt;OntoSearchPaginatorModule</title>
<path fill="none" stroke="black" d="M343.12,-122.11C343.12,-122.11 343.12,-140.99 343.12,-140.99"/>
<polygon fill="black" stroke="black" points="339.62,-140.99 343.12,-150.99 346.62,-140.99 339.62,-140.99"/>
</g>
</g>
</svg>
