<?xml version="1.0" encoding="UTF-8" standalone="no"?>
<!DOCTYPE svg PUBLIC "-//W3C//DTD SVG 1.1//EN"
 "http://www.w3.org/Graphics/SVG/1.1/DTD/svg11.dtd">
<!-- Generated by graphviz version 2.44.1 (20200629.0846)
 -->
<!-- Title: dependencies Pages: 1 -->
<svg width="1105pt" height="284pt"
 viewBox="0.00 0.00 1105.00 284.00" xmlns="http://www.w3.org/2000/svg" xmlns:xlink="http://www.w3.org/1999/xlink">
<g id="graph0" class="graph" transform="scale(1 1) rotate(0) translate(4 280)">
<title>dependencies</title>
<polygon fill="white" stroke="transparent" points="-4,4 -4,-280 1101,-280 1101,4 -4,4"/>
<text text-anchor="start" x="527.51" y="-42.4" font-family="sans-serif" font-weight="bold" font-size="14.00">Legend</text>
<polygon fill="#ffffb3" stroke="transparent" points="314.5,-10 314.5,-30 334.5,-30 334.5,-10 314.5,-10"/>
<text text-anchor="start" x="338.13" y="-15.4" font-family="sans-serif" font-size="14.00"> &#160;Declarations</text>
<polygon fill="#8dd3c7" stroke="transparent" points="427.5,-10 427.5,-30 447.5,-30 447.5,-10 427.5,-10"/>
<text text-anchor="start" x="451.23" y="-15.4" font-family="sans-serif" font-size="14.00"> &#160;Module</text>
<polygon fill="#80b1d3" stroke="transparent" points="513.5,-10 513.5,-30 533.5,-30 533.5,-10 513.5,-10"/>
<text text-anchor="start" x="537.28" y="-15.4" font-family="sans-serif" font-size="14.00"> &#160;Bootstrap</text>
<polygon fill="#fdb462" stroke="transparent" points="610.5,-10 610.5,-30 630.5,-30 630.5,-10 610.5,-10"/>
<text text-anchor="start" x="634.17" y="-15.4" font-family="sans-serif" font-size="14.00"> &#160;Providers</text>
<polygon fill="#fb8072" stroke="transparent" points="706.5,-10 706.5,-30 726.5,-30 726.5,-10 706.5,-10"/>
<text text-anchor="start" x="730.23" y="-15.4" font-family="sans-serif" font-size="14.00"> &#160;Exports</text>
<g id="clust1" class="cluster">
<title>cluster_RangeFacetModule</title>
<polygon fill="none" stroke="black" stroke-dasharray="1,5" points="8,-70 8,-268 1089,-268 1089,-70 8,-70"/>
</g>
<g id="clust2" class="cluster">
<title>cluster_RangeFacetModule_declarations</title>
<polygon fill="none" stroke="black" points="555,-78 555,-130 1081,-130 1081,-78 555,-78"/>
</g>
<g id="clust6" class="cluster">
<title>cluster_RangeFacetModule_imports</title>
<polygon fill="none" stroke="black" points="16,-78 16,-130 547,-130 547,-78 16,-78"/>
</g>
<g id="clust7" class="cluster">
<title>cluster_RangeFacetModule_exports</title>
<polygon fill="none" stroke="black" points="400,-208 400,-260 566,-260 566,-208 400,-208"/>
</g>
<!-- RangeFacetComponent -->
<g id="node1" class="node">
<title>RangeFacetComponent</title>
<polygon fill="#ffffb3" stroke="black" points="1072.92,-122 925.08,-122 925.08,-86 1072.92,-86 1072.92,-122"/>
<text text-anchor="middle" x="999" y="-99.8" font-family="Times,serif" font-size="14.00">RangeFacetComponent</text>
</g>
<!-- RangeFacetModule -->
<g id="node4" class="node">
<title>RangeFacetModule</title>
<polygon fill="#8dd3c7" stroke="black" points="545.63,-187 542.63,-191 521.63,-191 518.63,-187 420.37,-187 420.37,-151 545.63,-151 545.63,-187"/>
<text text-anchor="middle" x="483" y="-164.8" font-family="Times,serif" font-size="14.00">RangeFacetModule</text>
</g>
<!-- RangeFacetComponent&#45;&gt;RangeFacetModule -->
<g id="edge1" class="edge">
<title>RangeFacetComponent&#45;&gt;RangeFacetModule</title>
<path fill="none" stroke="black" d="M999,-122.29C999,-144.21 999,-178 999,-178 999,-178 555.76,-178 555.76,-178"/>
<polygon fill="black" stroke="black" points="555.76,-174.5 545.76,-178 555.76,-181.5 555.76,-174.5"/>
</g>
<!-- RangeSliderComponent -->
<g id="node2" class="node">
<title>RangeSliderComponent</title>
<polygon fill="#ffffb3" stroke="black" points="907.04,-122 756.96,-122 756.96,-86 907.04,-86 907.04,-122"/>
<text text-anchor="middle" x="832" y="-99.8" font-family="Times,serif" font-size="14.00">RangeSliderComponent</text>
</g>
<!-- RangeSliderComponent&#45;&gt;RangeFacetModule -->
<g id="edge2" class="edge">
<title>RangeSliderComponent&#45;&gt;RangeFacetModule</title>
<path fill="none" stroke="black" d="M832,-122.11C832,-141.34 832,-169 832,-169 832,-169 555.8,-169 555.8,-169"/>
<polygon fill="black" stroke="black" points="555.8,-165.5 545.8,-169 555.8,-172.5 555.8,-165.5"/>
</g>
<!-- RangeHistogramComponent -->
<g id="node3" class="node">
<title>RangeHistogramComponent</title>
<polygon fill="#ffffb3" stroke="black" points="739.2,-122 562.8,-122 562.8,-86 739.2,-86 739.2,-122"/>
<text text-anchor="middle" x="651" y="-99.8" font-family="Times,serif" font-size="14.00">RangeHistogramComponent</text>
</g>
<!-- RangeHistogramComponent&#45;&gt;RangeFacetModule -->
<g id="edge3" class="edge">
<title>RangeHistogramComponent&#45;&gt;RangeFacetModule</title>
<path fill="none" stroke="black" d="M651,-122.03C651,-138.4 651,-160 651,-160 651,-160 556.03,-160 556.03,-160"/>
<polygon fill="black" stroke="black" points="556.04,-156.5 546.03,-160 556.03,-163.5 556.04,-156.5"/>
</g>
<!-- RangeFacetComponent  -->
<g id="node9" class="node">
<title>RangeFacetComponent </title>
<polygon fill="#fb8072" stroke="black" points="558.42,-252 407.58,-252 407.58,-216 558.42,-216 558.42,-252"/>
<text text-anchor="middle" x="483" y="-229.8" font-family="Times,serif" font-size="14.00">RangeFacetComponent </text>
</g>
<!-- RangeFacetModule&#45;&gt;RangeFacetComponent  -->
<g id="edge8" class="edge">
<title>RangeFacetModule&#45;&gt;RangeFacetComponent </title>
<path fill="none" stroke="black" stroke-dasharray="5,2" d="M483,-187.11C483,-187.11 483,-205.99 483,-205.99"/>
<polygon fill="black" stroke="black" points="479.5,-205.99 483,-215.99 486.5,-205.99 479.5,-205.99"/>
</g>
<!-- CommonModule -->
<g id="node5" class="node">
<title>CommonModule</title>
<polygon fill="#8dd3c7" stroke="black" points="538.67,-122 535.67,-126 514.67,-126 511.67,-122 427.33,-122 427.33,-86 538.67,-86 538.67,-122"/>
<text text-anchor="middle" x="483" y="-99.8" font-family="Times,serif" font-size="14.00">CommonModule</text>
</g>
<!-- CommonModule&#45;&gt;RangeFacetModule -->
<g id="edge4" class="edge">
<title>CommonModule&#45;&gt;RangeFacetModule</title>
<path fill="none" stroke="black" d="M483,-122.11C483,-122.11 483,-140.99 483,-140.99"/>
<polygon fill="black" stroke="black" points="479.5,-140.99 483,-150.99 486.5,-140.99 479.5,-140.99"/>
</g>
<!-- MatSliderModule -->
<g id="node6" class="node">
<title>MatSliderModule</title>
<polygon fill="#8dd3c7" stroke="black" points="408.54,-122 405.54,-126 384.54,-126 381.54,-122 293.46,-122 293.46,-86 408.54,-86 408.54,-122"/>
<text text-anchor="middle" x="351" y="-99.8" font-family="Times,serif" font-size="14.00">MatSliderModule</text>
</g>
<!-- MatSliderModule&#45;&gt;RangeFacetModule -->
<g id="edge5" class="edge">
<title>MatSliderModule&#45;&gt;RangeFacetModule</title>
<path fill="none" stroke="black" d="M350.39,-122.03C350.39,-138.4 350.39,-160 350.39,-160 350.39,-160 410.19,-160 410.19,-160"/>
<polygon fill="black" stroke="black" points="410.19,-163.5 420.19,-160 410.19,-156.5 410.19,-163.5"/>
</g>
<!-- TranslocoModule -->
<g id="node7" class="node">
<title>TranslocoModule</title>
<polygon fill="#8dd3c7" stroke="black" points="274.53,-122 271.53,-126 250.53,-126 247.53,-122 159.47,-122 159.47,-86 274.53,-86 274.53,-122"/>
<text text-anchor="middle" x="217" y="-99.8" font-family="Times,serif" font-size="14.00">TranslocoModule</text>
</g>
<!-- TranslocoModule&#45;&gt;RangeFacetModule -->
<g id="edge6" class="edge">
<title>TranslocoModule&#45;&gt;RangeFacetModule</title>
<path fill="none" stroke="black" d="M217,-122.11C217,-141.34 217,-169 217,-169 217,-169 410.3,-169 410.3,-169"/>
<polygon fill="black" stroke="black" points="410.3,-172.5 420.3,-169 410.3,-165.5 410.3,-172.5"/>
</g>
<!-- DirectivesModule -->
<g id="node8" class="node">
<title>DirectivesModule</title>
<polygon fill="#8dd3c7" stroke="black" points="141.58,-122 138.58,-126 117.58,-126 114.58,-122 24.42,-122 24.42,-86 141.58,-86 141.58,-122"/>
<text text-anchor="middle" x="83" y="-99.8" font-family="Times,serif" font-size="14.00">DirectivesModule</text>
</g>
<!-- DirectivesModule&#45;&gt;RangeFacetModule -->
<g id="edge7" class="edge">
<title>DirectivesModule&#45;&gt;RangeFacetModule</title>
<path fill="none" stroke="black" d="M83,-122.29C83,-144.21 83,-178 83,-178 83,-178 410.06,-178 410.06,-178"/>
<polygon fill="black" stroke="black" points="410.06,-181.5 420.06,-178 410.06,-174.5 410.06,-181.5"/>
</g>
</g>
</svg>
