<?xml version="1.0" encoding="UTF-8" standalone="no"?>
<!DOCTYPE svg PUBLIC "-//W3C//DTD SVG 1.1//EN"
 "http://www.w3.org/Graphics/SVG/1.1/DTD/svg11.dtd">
<!-- Generated by graphviz version 2.44.1 (20200629.0846)
 -->
<!-- Title: dependencies Pages: 1 -->
<svg width="1842pt" height="284pt"
 viewBox="0.00 0.00 1842.00 284.00" xmlns="http://www.w3.org/2000/svg" xmlns:xlink="http://www.w3.org/1999/xlink">
<g id="graph0" class="graph" transform="scale(1 1) rotate(0) translate(4 280)">
<title>dependencies</title>
<polygon fill="white" stroke="transparent" points="-4,4 -4,-280 1838,-280 1838,4 -4,4"/>
<text text-anchor="start" x="896.01" y="-42.4" font-family="sans-serif" font-weight="bold" font-size="14.00">Legend</text>
<polygon fill="#ffffb3" stroke="transparent" points="683,-10 683,-30 703,-30 703,-10 683,-10"/>
<text text-anchor="start" x="706.63" y="-15.4" font-family="sans-serif" font-size="14.00"> &#160;Declarations</text>
<polygon fill="#8dd3c7" stroke="transparent" points="796,-10 796,-30 816,-30 816,-10 796,-10"/>
<text text-anchor="start" x="819.73" y="-15.4" font-family="sans-serif" font-size="14.00"> &#160;Module</text>
<polygon fill="#80b1d3" stroke="transparent" points="882,-10 882,-30 902,-30 902,-10 882,-10"/>
<text text-anchor="start" x="905.78" y="-15.4" font-family="sans-serif" font-size="14.00"> &#160;Bootstrap</text>
<polygon fill="#fdb462" stroke="transparent" points="979,-10 979,-30 999,-30 999,-10 979,-10"/>
<text text-anchor="start" x="1002.67" y="-15.4" font-family="sans-serif" font-size="14.00"> &#160;Providers</text>
<polygon fill="#fb8072" stroke="transparent" points="1075,-10 1075,-30 1095,-30 1095,-10 1075,-10"/>
<text text-anchor="start" x="1098.73" y="-15.4" font-family="sans-serif" font-size="14.00"> &#160;Exports</text>
<g id="clust1" class="cluster">
<title>cluster_OntoSearchColumnSelectorModule</title>
<polygon fill="none" stroke="black" stroke-dasharray="1,5" points="8,-70 8,-268 1826,-268 1826,-70 8,-70"/>
</g>
<g id="clust4" class="cluster">
<title>cluster_OntoSearchColumnSelectorModule_imports</title>
<polygon fill="none" stroke="black" points="826,-78 826,-130 1818,-130 1818,-78 826,-78"/>
</g>
<g id="clust2" class="cluster">
<title>cluster_OntoSearchColumnSelectorModule_declarations</title>
<polygon fill="none" stroke="black" points="628,-78 628,-130 818,-130 818,-78 628,-78"/>
</g>
<g id="clust5" class="cluster">
<title>cluster_OntoSearchColumnSelectorModule_exports</title>
<polygon fill="none" stroke="black" points="1074,-208 1074,-260 1266,-260 1266,-208 1074,-208"/>
</g>
<g id="clust7" class="cluster">
<title>cluster_OntoSearchColumnSelectorModule_providers</title>
<polygon fill="none" stroke="black" points="16,-78 16,-130 620,-130 620,-78 16,-78"/>
</g>
<!-- OntoSearchColumnSelector -->
<g id="node1" class="node">
<title>OntoSearchColumnSelector</title>
<polygon fill="#ffffb3" stroke="black" points="809.57,-122 636.43,-122 636.43,-86 809.57,-86 809.57,-122"/>
<text text-anchor="middle" x="723" y="-99.8" font-family="Times,serif" font-size="14.00">OntoSearchColumnSelector</text>
</g>
<!-- OntoSearchColumnSelectorModule -->
<g id="node2" class="node">
<title>OntoSearchColumnSelectorModule</title>
<polygon fill="#8dd3c7" stroke="black" points="1278.12,-187 1275.12,-191 1254.12,-191 1251.12,-187 1061.88,-187 1061.88,-151 1278.12,-151 1278.12,-187"/>
<text text-anchor="middle" x="1170" y="-164.8" font-family="Times,serif" font-size="14.00">OntoSearchColumnSelectorModule</text>
</g>
<!-- OntoSearchColumnSelector&#45;&gt;OntoSearchColumnSelectorModule -->
<g id="edge1" class="edge">
<title>OntoSearchColumnSelector&#45;&gt;OntoSearchColumnSelectorModule</title>
<path fill="none" stroke="black" d="M723,-122.11C723,-141.34 723,-169 723,-169 723,-169 1051.79,-169 1051.79,-169"/>
<polygon fill="black" stroke="black" points="1051.79,-172.5 1061.79,-169 1051.79,-165.5 1051.79,-172.5"/>
</g>
<!-- OntoSearchColumnSelector  -->
<g id="node10" class="node">
<title>OntoSearchColumnSelector </title>
<polygon fill="#fb8072" stroke="black" points="1258.07,-252 1081.93,-252 1081.93,-216 1258.07,-216 1258.07,-252"/>
<text text-anchor="middle" x="1170" y="-229.8" font-family="Times,serif" font-size="14.00">OntoSearchColumnSelector </text>
</g>
<!-- OntoSearchColumnSelectorModule&#45;&gt;OntoSearchColumnSelector  -->
<g id="edge9" class="edge">
<title>OntoSearchColumnSelectorModule&#45;&gt;OntoSearchColumnSelector </title>
<path fill="none" stroke="black" stroke-dasharray="5,2" d="M1170,-187.11C1170,-187.11 1170,-205.99 1170,-205.99"/>
<polygon fill="black" stroke="black" points="1166.5,-205.99 1170,-215.99 1173.5,-205.99 1166.5,-205.99"/>
</g>
<!-- DirectivesModule -->
<g id="node3" class="node">
<title>DirectivesModule</title>
<polygon fill="#8dd3c7" stroke="black" points="1809.58,-122 1806.58,-126 1785.58,-126 1782.58,-122 1692.42,-122 1692.42,-86 1809.58,-86 1809.58,-122"/>
<text text-anchor="middle" x="1751" y="-99.8" font-family="Times,serif" font-size="14.00">DirectivesModule</text>
</g>
<!-- DirectivesModule&#45;&gt;OntoSearchColumnSelectorModule -->
<g id="edge2" class="edge">
<title>DirectivesModule&#45;&gt;OntoSearchColumnSelectorModule</title>
<path fill="none" stroke="black" d="M1751,-122.29C1751,-144.21 1751,-178 1751,-178 1751,-178 1288.26,-178 1288.26,-178"/>
<polygon fill="black" stroke="black" points="1288.26,-174.5 1278.26,-178 1288.26,-181.5 1288.26,-174.5"/>
</g>
<!-- MatButtonModule -->
<g id="node4" class="node">
<title>MatButtonModule</title>
<polygon fill="#8dd3c7" stroke="black" points="1674.22,-122 1671.22,-126 1650.22,-126 1647.22,-122 1553.78,-122 1553.78,-86 1674.22,-86 1674.22,-122"/>
<text text-anchor="middle" x="1614" y="-99.8" font-family="Times,serif" font-size="14.00">MatButtonModule</text>
</g>
<!-- MatButtonModule&#45;&gt;OntoSearchColumnSelectorModule -->
<g id="edge3" class="edge">
<title>MatButtonModule&#45;&gt;OntoSearchColumnSelectorModule</title>
<path fill="none" stroke="black" d="M1614,-122.11C1614,-141.34 1614,-169 1614,-169 1614,-169 1288.33,-169 1288.33,-169"/>
<polygon fill="black" stroke="black" points="1288.33,-165.5 1278.33,-169 1288.33,-172.5 1288.33,-165.5"/>
</g>
<!-- MatFormFieldModule -->
<g id="node5" class="node">
<title>MatFormFieldModule</title>
<polygon fill="#8dd3c7" stroke="black" points="1535.71,-122 1532.71,-126 1511.71,-126 1508.71,-122 1394.29,-122 1394.29,-86 1535.71,-86 1535.71,-122"/>
<text text-anchor="middle" x="1465" y="-99.8" font-family="Times,serif" font-size="14.00">MatFormFieldModule</text>
</g>
<!-- MatFormFieldModule&#45;&gt;OntoSearchColumnSelectorModule -->
<g id="edge4" class="edge">
<title>MatFormFieldModule&#45;&gt;OntoSearchColumnSelectorModule</title>
<path fill="none" stroke="black" d="M1465,-122.03C1465,-138.4 1465,-160 1465,-160 1465,-160 1288.17,-160 1288.17,-160"/>
<polygon fill="black" stroke="black" points="1288.17,-156.5 1278.17,-160 1288.17,-163.5 1288.17,-156.5"/>
</g>
<!-- MatSelectModule -->
<g id="node6" class="node">
<title>MatSelectModule</title>
<polygon fill="#8dd3c7" stroke="black" points="1376.31,-122 1373.31,-126 1352.31,-126 1349.31,-122 1259.69,-122 1259.69,-86 1376.31,-86 1376.31,-122"/>
<text text-anchor="middle" x="1318" y="-99.8" font-family="Times,serif" font-size="14.00">MatSelectModule</text>
</g>
<!-- MatSelectModule&#45;&gt;OntoSearchColumnSelectorModule -->
<g id="edge5" class="edge">
<title>MatSelectModule&#45;&gt;OntoSearchColumnSelectorModule</title>
<path fill="none" stroke="black" d="M1269.08,-122.11C1269.08,-122.11 1269.08,-140.99 1269.08,-140.99"/>
<polygon fill="black" stroke="black" points="1265.58,-140.99 1269.08,-150.99 1272.58,-140.99 1265.58,-140.99"/>
</g>
<!-- ReactiveFormsModule -->
<g id="node7" class="node">
<title>ReactiveFormsModule</title>
<polygon fill="#8dd3c7" stroke="black" points="1242.3,-122 1239.3,-126 1218.3,-126 1215.3,-122 1097.7,-122 1097.7,-86 1242.3,-86 1242.3,-122"/>
<text text-anchor="middle" x="1170" y="-99.8" font-family="Times,serif" font-size="14.00">ReactiveFormsModule</text>
</g>
<!-- ReactiveFormsModule&#45;&gt;OntoSearchColumnSelectorModule -->
<g id="edge6" class="edge">
<title>ReactiveFormsModule&#45;&gt;OntoSearchColumnSelectorModule</title>
<path fill="none" stroke="black" d="M1170,-122.11C1170,-122.11 1170,-140.99 1170,-140.99"/>
<polygon fill="black" stroke="black" points="1166.5,-140.99 1170,-150.99 1173.5,-140.99 1166.5,-140.99"/>
</g>
<!-- TranslocoModule -->
<g id="node8" class="node">
<title>TranslocoModule</title>
<polygon fill="#8dd3c7" stroke="black" points="1079.53,-122 1076.53,-126 1055.53,-126 1052.53,-122 964.47,-122 964.47,-86 1079.53,-86 1079.53,-122"/>
<text text-anchor="middle" x="1022" y="-99.8" font-family="Times,serif" font-size="14.00">TranslocoModule</text>
</g>
<!-- TranslocoModule&#45;&gt;OntoSearchColumnSelectorModule -->
<g id="edge7" class="edge">
<title>TranslocoModule&#45;&gt;OntoSearchColumnSelectorModule</title>
<path fill="none" stroke="black" d="M1070.73,-122.11C1070.73,-122.11 1070.73,-140.99 1070.73,-140.99"/>
<polygon fill="black" stroke="black" points="1067.23,-140.99 1070.73,-150.99 1074.23,-140.99 1067.23,-140.99"/>
</g>
<!-- CommonModule -->
<g id="node9" class="node">
<title>CommonModule</title>
<polygon fill="#8dd3c7" stroke="black" points="945.67,-122 942.67,-126 921.67,-126 918.67,-122 834.33,-122 834.33,-86 945.67,-86 945.67,-122"/>
<text text-anchor="middle" x="890" y="-99.8" font-family="Times,serif" font-size="14.00">CommonModule</text>
</g>
<!-- CommonModule&#45;&gt;OntoSearchColumnSelectorModule -->
<g id="edge8" class="edge">
<title>CommonModule&#45;&gt;OntoSearchColumnSelectorModule</title>
<path fill="none" stroke="black" d="M890,-122.03C890,-138.4 890,-160 890,-160 890,-160 1051.74,-160 1051.74,-160"/>
<polygon fill="black" stroke="black" points="1051.74,-163.5 1061.74,-160 1051.74,-156.5 1051.74,-163.5"/>
</g>
<!-- { provide: TRANSLOCO_CONFIG, useValue: translocoConfiguration } -->
<g id="node11" class="node">
<title>{ provide: TRANSLOCO_CONFIG, useValue: translocoConfiguration }</title>
<ellipse fill="#fdb462" stroke="black" cx="318" cy="-104" rx="293.72" ry="18"/>
<text text-anchor="middle" x="318" y="-99.8" font-family="Times,serif" font-size="14.00">{ provide: TRANSLOCO_CONFIG, useValue: translocoConfiguration }</text>
</g>
<!-- { provide: TRANSLOCO_CONFIG, useValue: translocoConfiguration }&#45;&gt;OntoSearchColumnSelectorModule -->
<g id="edge10" class="edge">
<title>{ provide: TRANSLOCO_CONFIG, useValue: translocoConfiguration }&#45;&gt;OntoSearchColumnSelectorModule</title>
<path fill="none" stroke="black" d="M318,-122.29C318,-144.21 318,-178 318,-178 318,-178 1051.66,-178 1051.66,-178"/>
<polygon fill="black" stroke="black" points="1051.66,-181.5 1061.66,-178 1051.66,-174.5 1051.66,-181.5"/>
</g>
</g>
</svg>
