<?xml version="1.0" encoding="UTF-8" standalone="no"?>
<!DOCTYPE svg PUBLIC "-//W3C//DTD SVG 1.1//EN"
 "http://www.w3.org/Graphics/SVG/1.1/DTD/svg11.dtd">
<!-- Generated by graphviz version 2.44.1 (20200629.0846)
 -->
<!-- Title: dependencies Pages: 1 -->
<svg width="903pt" height="284pt"
 viewBox="0.00 0.00 903.00 284.00" xmlns="http://www.w3.org/2000/svg" xmlns:xlink="http://www.w3.org/1999/xlink">
<g id="graph0" class="graph" transform="scale(1 1) rotate(0) translate(4 280)">
<title>dependencies</title>
<polygon fill="white" stroke="transparent" points="-4,4 -4,-280 899,-280 899,4 -4,4"/>
<text text-anchor="start" x="426.51" y="-42.4" font-family="sans-serif" font-weight="bold" font-size="14.00">Legend</text>
<polygon fill="#ffffb3" stroke="transparent" points="213.5,-10 213.5,-30 233.5,-30 233.5,-10 213.5,-10"/>
<text text-anchor="start" x="237.13" y="-15.4" font-family="sans-serif" font-size="14.00"> &#160;Declarations</text>
<polygon fill="#8dd3c7" stroke="transparent" points="326.5,-10 326.5,-30 346.5,-30 346.5,-10 326.5,-10"/>
<text text-anchor="start" x="350.23" y="-15.4" font-family="sans-serif" font-size="14.00"> &#160;Module</text>
<polygon fill="#80b1d3" stroke="transparent" points="412.5,-10 412.5,-30 432.5,-30 432.5,-10 412.5,-10"/>
<text text-anchor="start" x="436.28" y="-15.4" font-family="sans-serif" font-size="14.00"> &#160;Bootstrap</text>
<polygon fill="#fdb462" stroke="transparent" points="509.5,-10 509.5,-30 529.5,-30 529.5,-10 509.5,-10"/>
<text text-anchor="start" x="533.17" y="-15.4" font-family="sans-serif" font-size="14.00"> &#160;Providers</text>
<polygon fill="#fb8072" stroke="transparent" points="605.5,-10 605.5,-30 625.5,-30 625.5,-10 605.5,-10"/>
<text text-anchor="start" x="629.23" y="-15.4" font-family="sans-serif" font-size="14.00"> &#160;Exports</text>
<g id="clust1" class="cluster">
<title>cluster_OntoSearchResultsModule</title>
<polygon fill="none" stroke="black" stroke-dasharray="1,5" points="8,-70 8,-268 887,-268 887,-70 8,-70"/>
</g>
<g id="clust2" class="cluster">
<title>cluster_OntoSearchResultsModule_declarations</title>
<polygon fill="none" stroke="black" points="675,-78 675,-130 879,-130 879,-78 675,-78"/>
</g>
<g id="clust4" class="cluster">
<title>cluster_OntoSearchResultsModule_imports</title>
<polygon fill="none" stroke="black" points="16,-78 16,-130 667,-130 667,-78 16,-78"/>
</g>
<g id="clust5" class="cluster">
<title>cluster_OntoSearchResultsModule_exports</title>
<polygon fill="none" stroke="black" points="301,-208 301,-260 509,-260 509,-208 301,-208"/>
</g>
<!-- OntoSearchResultsComponent -->
<g id="node1" class="node">
<title>OntoSearchResultsComponent</title>
<polygon fill="#ffffb3" stroke="black" points="871.14,-122 682.86,-122 682.86,-86 871.14,-86 871.14,-122"/>
<text text-anchor="middle" x="777" y="-99.8" font-family="Times,serif" font-size="14.00">OntoSearchResultsComponent</text>
</g>
<!-- OntoSearchResultsModule -->
<g id="node2" class="node">
<title>OntoSearchResultsModule</title>
<polygon fill="#8dd3c7" stroke="black" points="488.36,-187 485.36,-191 464.36,-191 461.36,-187 321.64,-187 321.64,-151 488.36,-151 488.36,-187"/>
<text text-anchor="middle" x="405" y="-164.8" font-family="Times,serif" font-size="14.00">OntoSearchResultsModule</text>
</g>
<!-- OntoSearchResultsComponent&#45;&gt;OntoSearchResultsModule -->
<g id="edge1" class="edge">
<title>OntoSearchResultsComponent&#45;&gt;OntoSearchResultsModule</title>
<path fill="none" stroke="black" d="M777,-122.28C777,-143.32 777,-175 777,-175 777,-175 498.48,-175 498.48,-175"/>
<polygon fill="black" stroke="black" points="498.48,-171.5 488.48,-175 498.48,-178.5 498.48,-171.5"/>
</g>
<!-- OntoSearchResultsComponent  -->
<g id="node8" class="node">
<title>OntoSearchResultsComponent </title>
<polygon fill="#fb8072" stroke="black" points="501.14,-252 308.86,-252 308.86,-216 501.14,-216 501.14,-252"/>
<text text-anchor="middle" x="405" y="-229.8" font-family="Times,serif" font-size="14.00">OntoSearchResultsComponent </text>
</g>
<!-- OntoSearchResultsModule&#45;&gt;OntoSearchResultsComponent  -->
<g id="edge7" class="edge">
<title>OntoSearchResultsModule&#45;&gt;OntoSearchResultsComponent </title>
<path fill="none" stroke="black" stroke-dasharray="5,2" d="M405,-187.11C405,-187.11 405,-205.99 405,-205.99"/>
<polygon fill="black" stroke="black" points="401.5,-205.99 405,-215.99 408.5,-205.99 401.5,-205.99"/>
</g>
<!-- CdkTableModule -->
<g id="node3" class="node">
<title>CdkTableModule</title>
<polygon fill="#8dd3c7" stroke="black" points="659.26,-122 656.26,-126 635.26,-126 632.26,-122 544.74,-122 544.74,-86 659.26,-86 659.26,-122"/>
<text text-anchor="middle" x="602" y="-99.8" font-family="Times,serif" font-size="14.00">CdkTableModule</text>
</g>
<!-- CdkTableModule&#45;&gt;OntoSearchResultsModule -->
<g id="edge2" class="edge">
<title>CdkTableModule&#45;&gt;OntoSearchResultsModule</title>
<path fill="none" stroke="black" d="M602,-122.02C602,-139.37 602,-163 602,-163 602,-163 498.55,-163 498.55,-163"/>
<polygon fill="black" stroke="black" points="498.55,-159.5 488.55,-163 498.55,-166.5 498.55,-159.5"/>
</g>
<!-- CommonModule -->
<g id="node4" class="node">
<title>CommonModule</title>
<polygon fill="#8dd3c7" stroke="black" points="526.67,-122 523.67,-126 502.67,-126 499.67,-122 415.33,-122 415.33,-86 526.67,-86 526.67,-122"/>
<text text-anchor="middle" x="471" y="-99.8" font-family="Times,serif" font-size="14.00">CommonModule</text>
</g>
<!-- CommonModule&#45;&gt;OntoSearchResultsModule -->
<g id="edge3" class="edge">
<title>CommonModule&#45;&gt;OntoSearchResultsModule</title>
<path fill="none" stroke="black" d="M451.8,-122.11C451.8,-122.11 451.8,-140.99 451.8,-140.99"/>
<polygon fill="black" stroke="black" points="448.3,-140.99 451.8,-150.99 455.3,-140.99 448.3,-140.99"/>
</g>
<!-- DirectivesModule -->
<g id="node5" class="node">
<title>DirectivesModule</title>
<polygon fill="#8dd3c7" stroke="black" points="397.58,-122 394.58,-126 373.58,-126 370.58,-122 280.42,-122 280.42,-86 397.58,-86 397.58,-122"/>
<text text-anchor="middle" x="339" y="-99.8" font-family="Times,serif" font-size="14.00">DirectivesModule</text>
</g>
<!-- DirectivesModule&#45;&gt;OntoSearchResultsModule -->
<g id="edge4" class="edge">
<title>DirectivesModule&#45;&gt;OntoSearchResultsModule</title>
<path fill="none" stroke="black" d="M359.56,-122.11C359.56,-122.11 359.56,-140.99 359.56,-140.99"/>
<polygon fill="black" stroke="black" points="356.06,-140.99 359.56,-150.99 363.06,-140.99 356.06,-140.99"/>
</g>
<!-- MatTableModule -->
<g id="node6" class="node">
<title>MatTableModule</title>
<polygon fill="#8dd3c7" stroke="black" points="261.97,-122 258.97,-126 237.97,-126 234.97,-122 148.03,-122 148.03,-86 261.97,-86 261.97,-122"/>
<text text-anchor="middle" x="205" y="-99.8" font-family="Times,serif" font-size="14.00">MatTableModule</text>
</g>
<!-- MatTableModule&#45;&gt;OntoSearchResultsModule -->
<g id="edge5" class="edge">
<title>MatTableModule&#45;&gt;OntoSearchResultsModule</title>
<path fill="none" stroke="black" d="M205,-122.02C205,-139.37 205,-163 205,-163 205,-163 311.63,-163 311.63,-163"/>
<polygon fill="black" stroke="black" points="311.63,-166.5 321.63,-163 311.63,-159.5 311.63,-166.5"/>
</g>
<!-- MatSortModule -->
<g id="node7" class="node">
<title>MatSortModule</title>
<polygon fill="#8dd3c7" stroke="black" points="129.93,-122 126.93,-126 105.93,-126 102.93,-122 24.07,-122 24.07,-86 129.93,-86 129.93,-122"/>
<text text-anchor="middle" x="77" y="-99.8" font-family="Times,serif" font-size="14.00">MatSortModule</text>
</g>
<!-- MatSortModule&#45;&gt;OntoSearchResultsModule -->
<g id="edge6" class="edge">
<title>MatSortModule&#45;&gt;OntoSearchResultsModule</title>
<path fill="none" stroke="black" d="M77,-122.28C77,-143.32 77,-175 77,-175 77,-175 311.38,-175 311.38,-175"/>
<polygon fill="black" stroke="black" points="311.38,-178.5 321.38,-175 311.38,-171.5 311.38,-178.5"/>
</g>
</g>
</svg>
