<?xml version="1.0" encoding="UTF-8" standalone="no"?>
<!DOCTYPE svg PUBLIC "-//W3C//DTD SVG 1.1//EN"
 "http://www.w3.org/Graphics/SVG/1.1/DTD/svg11.dtd">
<!-- Generated by graphviz version 2.44.0 (20200408.0750)
 -->
<!-- Title: dependencies Pages: 1 -->
<svg width="798pt" height="290pt"
 viewBox="0.00 0.00 798.00 290.00" xmlns="http://www.w3.org/2000/svg" xmlns:xlink="http://www.w3.org/1999/xlink">
<g id="graph0" class="graph" transform="scale(1 1) rotate(0) translate(4 286)">
<title>dependencies</title>
<polygon fill="white" stroke="transparent" points="-4,4 -4,-286 794,-286 794,4 -4,4"/>
<text text-anchor="start" x="374.01" y="-42.4" font-family="sans-serif" font-weight="bold" font-size="14.00">Legend</text>
<polygon fill="#ffffb3" stroke="transparent" points="161,-10 161,-30 181,-30 181,-10 161,-10"/>
<text text-anchor="start" x="184.63" y="-15.4" font-family="sans-serif" font-size="14.00"> &#160;Declarations</text>
<polygon fill="#8dd3c7" stroke="transparent" points="274,-10 274,-30 294,-30 294,-10 274,-10"/>
<text text-anchor="start" x="297.73" y="-15.4" font-family="sans-serif" font-size="14.00"> &#160;Module</text>
<polygon fill="#80b1d3" stroke="transparent" points="360,-10 360,-30 380,-30 380,-10 360,-10"/>
<text text-anchor="start" x="383.78" y="-15.4" font-family="sans-serif" font-size="14.00"> &#160;Bootstrap</text>
<polygon fill="#fdb462" stroke="transparent" points="457,-10 457,-30 477,-30 477,-10 457,-10"/>
<text text-anchor="start" x="480.67" y="-15.4" font-family="sans-serif" font-size="14.00"> &#160;Providers</text>
<polygon fill="#fb8072" stroke="transparent" points="553,-10 553,-30 573,-30 573,-10 553,-10"/>
<text text-anchor="start" x="576.73" y="-15.4" font-family="sans-serif" font-size="14.00"> &#160;Exports</text>
<g id="clust1" class="cluster">
<title>cluster_AppModule</title>
<polygon fill="none" stroke="black" stroke-dasharray="1,5" points="8,-70 8,-274 434,-274 434,-70 8,-70"/>
</g>
<g id="clust2" class="cluster">
<title>cluster_AppModule_declarations</title>
<polygon fill="none" stroke="black" points="16,-78 16,-130 138,-130 138,-78 16,-78"/>
</g>
<g id="clust4" class="cluster">
<title>cluster_AppModule_imports</title>
<polygon fill="none" stroke="black" points="146,-78 146,-130 426,-130 426,-78 146,-78"/>
</g>
<g id="clust6" class="cluster">
<title>cluster_AppModule_bootstrap</title>
<polygon fill="none" stroke="black" points="156,-214 156,-266 280,-266 280,-214 156,-214"/>
</g>
<g id="clust14" class="cluster">
<title>cluster_DirectivesModule</title>
<polygon fill="none" stroke="black" stroke-dasharray="1,5" points="442,-138 442,-206 782,-206 782,-138 442,-138"/>
</g>
<g id="clust15" class="cluster">
<title>cluster_DirectivesModule_declarations</title>
<polygon fill="none" stroke="black" points="618,-146 618,-198 774,-198 774,-146 618,-146"/>
</g>
<g id="clust18" class="cluster">
<title>cluster_DirectivesModule_exports</title>
<polygon fill="none" stroke="black" points="450,-146 450,-198 610,-198 610,-146 450,-146"/>
</g>
<!-- AppComponent -->
<g id="node1" class="node">
<title>AppComponent</title>
<polygon fill="#ffffb3" stroke="black" points="129.94,-122 24.06,-122 24.06,-86 129.94,-86 129.94,-122"/>
<text text-anchor="middle" x="77" y="-99.8" font-family="Times,serif" font-size="14.00">AppComponent</text>
</g>
<!-- AppModule -->
<g id="node2" class="node">
<title>AppModule</title>
<polygon fill="#8dd3c7" stroke="black" points="259.66,-190 256.66,-194 235.66,-194 232.66,-190 176.34,-190 176.34,-154 259.66,-154 259.66,-190"/>
<text text-anchor="middle" x="218" y="-167.8" font-family="Times,serif" font-size="14.00">AppModule</text>
</g>
<!-- AppComponent&#45;&gt;AppModule -->
<g id="edge1" class="edge">
<title>AppComponent&#45;&gt;AppModule</title>
<path fill="none" stroke="black" d="M77,-122.22C77,-142.37 77,-172 77,-172 77,-172 166.08,-172 166.08,-172"/>
<polygon fill="black" stroke="black" points="166.08,-175.5 176.08,-172 166.08,-168.5 166.08,-175.5"/>
</g>
<!-- AppComponent  -->
<g id="node5" class="node">
<title>AppComponent </title>
<polygon fill="#80b1d3" stroke="black" points="272.44,-258 163.56,-258 163.56,-222 272.44,-222 272.44,-258"/>
<text text-anchor="middle" x="218" y="-235.8" font-family="Times,serif" font-size="14.00">AppComponent </text>
</g>
<!-- AppModule&#45;&gt;AppComponent  -->
<g id="edge4" class="edge">
<title>AppModule&#45;&gt;AppComponent </title>
<path fill="none" stroke="black" stroke-dasharray="1,5" d="M218,-190.22C218,-190.22 218,-211.73 218,-211.73"/>
<polygon fill="black" stroke="black" points="214.5,-211.73 218,-221.73 221.5,-211.73 214.5,-211.73"/>
</g>
<!-- AppRoutingModule -->
<g id="node3" class="node">
<title>AppRoutingModule</title>
<polygon fill="#8dd3c7" stroke="black" points="282.27,-122 279.27,-126 258.27,-126 255.27,-122 153.73,-122 153.73,-86 282.27,-86 282.27,-122"/>
<text text-anchor="middle" x="218" y="-99.8" font-family="Times,serif" font-size="14.00">AppRoutingModule</text>
</g>
<!-- AppRoutingModule&#45;&gt;AppModule -->
<g id="edge2" class="edge">
<title>AppRoutingModule&#45;&gt;AppModule</title>
<path fill="none" stroke="black" d="M218,-122.22C218,-122.22 218,-143.73 218,-143.73"/>
<polygon fill="black" stroke="black" points="214.5,-143.73 218,-153.73 221.5,-143.73 214.5,-143.73"/>
</g>
<!-- DirectivesModule -->
<g id="node4" class="node">
<title>DirectivesModule</title>
<polygon fill="#8dd3c7" stroke="black" points="417.58,-122 414.58,-126 393.58,-126 390.58,-122 300.42,-122 300.42,-86 417.58,-86 417.58,-122"/>
<text text-anchor="middle" x="359" y="-99.8" font-family="Times,serif" font-size="14.00">DirectivesModule</text>
</g>
<!-- DirectivesModule&#45;&gt;AppModule -->
<g id="edge3" class="edge">
<title>DirectivesModule&#45;&gt;AppModule</title>
<path fill="none" stroke="black" d="M339.49,-122.29C339.49,-144.21 339.49,-178 339.49,-178 339.49,-178 269.81,-178 269.81,-178"/>
<polygon fill="black" stroke="black" points="269.81,-174.5 259.81,-178 269.81,-181.5 269.81,-174.5"/>
</g>
<!-- CypressDataDirective  -->
<g id="node7" class="node">
<title>CypressDataDirective </title>
<polygon fill="#fb8072" stroke="black" points="601.61,-190 458.39,-190 458.39,-154 601.61,-154 601.61,-190"/>
<text text-anchor="middle" x="530" y="-167.8" font-family="Times,serif" font-size="14.00">CypressDataDirective </text>
</g>
<!-- DirectivesModule&#45;&gt;CypressDataDirective  -->
<g id="edge6" class="edge">
<title>DirectivesModule&#45;&gt;CypressDataDirective </title>
<path fill="none" stroke="black" stroke-dasharray="5,2" d="M378.51,-122.27C378.51,-140.56 378.51,-166 378.51,-166 378.51,-166 448.25,-166 448.25,-166"/>
<polygon fill="black" stroke="black" points="448.25,-169.5 458.25,-166 448.25,-162.5 448.25,-169.5"/>
</g>
<!-- CypressDataDirective -->
<g id="node6" class="node">
<title>CypressDataDirective</title>
<polygon fill="#ffffb3" stroke="black" points="765.61,-190 626.39,-190 626.39,-154 765.61,-154 765.61,-190"/>
<text text-anchor="middle" x="696" y="-167.8" font-family="Times,serif" font-size="14.00">CypressDataDirective</text>
</g>
<!-- CypressDataDirective&#45;&gt;DirectivesModule -->
<g id="edge5" class="edge">
<title>CypressDataDirective&#45;&gt;DirectivesModule</title>
<path fill="none" stroke="black" d="M696,-153.78C696,-133.63 696,-104 696,-104 696,-104 427.7,-104 427.7,-104"/>
<polygon fill="black" stroke="black" points="427.7,-100.5 417.7,-104 427.7,-107.5 427.7,-100.5"/>
</g>
</g>
</svg>
